<mxfile host="65bd71144e">
    <diagram id="FHAlWhh75BVz3Mec7KVl" name="Page-1">
        <mxGraphModel dx="2344" dy="2098" grid="1" gridSize="10" guides="1" tooltips="1" connect="1" arrows="1" fold="1" page="1" pageScale="1" pageWidth="850" pageHeight="1100" math="0" shadow="0">
            <root>
                <mxCell id="0"/>
                <mxCell id="1" parent="0"/>
                <mxCell id="51" value="" style="rounded=1;whiteSpace=wrap;html=1;strokeWidth=1;fontSize=18;" vertex="1" parent="1">
                    <mxGeometry x="-530" y="120" width="690" height="720" as="geometry"/>
                </mxCell>
                <mxCell id="50" value="" style="rounded=1;whiteSpace=wrap;html=1;strokeWidth=1;fontSize=18;" vertex="1" parent="1">
                    <mxGeometry x="215" y="120" width="690" height="720" as="geometry"/>
                </mxCell>
                <mxCell id="20" style="edgeStyle=none;html=1;exitX=0.5;exitY=1;exitDx=0;exitDy=0;entryX=0.5;entryY=0;entryDx=0;entryDy=0;strokeWidth=3;fontSize=18;" edge="1" parent="1" source="11" target="2">
                    <mxGeometry relative="1" as="geometry"/>
                </mxCell>
                <mxCell id="11" value="&lt;font style=&quot;font-size: 25px;&quot;&gt;client&lt;/font&gt;" style="whiteSpace=wrap;html=1;strokeWidth=1;fontSize=18;" vertex="1" parent="1">
                    <mxGeometry x="65" y="-40" width="210" height="100" as="geometry"/>
                </mxCell>
                <mxCell id="14" value="" style="group;strokeWidth=1;fontSize=18;" vertex="1" connectable="0" parent="1">
                    <mxGeometry x="110" y="150" width="140" height="80" as="geometry"/>
                </mxCell>
                <mxCell id="2" value="" style="whiteSpace=wrap;html=1;strokeWidth=1;fontSize=18;" parent="14" vertex="1">
                    <mxGeometry width="120" height="60" as="geometry"/>
                </mxCell>
                <mxCell id="12" value="" style="whiteSpace=wrap;html=1;strokeWidth=1;fontSize=18;" vertex="1" parent="14">
                    <mxGeometry x="10" y="10" width="120" height="60" as="geometry"/>
                </mxCell>
                <mxCell id="13" value="Load Balancer" style="whiteSpace=wrap;html=1;strokeWidth=1;fontSize=18;" vertex="1" parent="14">
                    <mxGeometry x="20" y="20" width="120" height="60" as="geometry"/>
                </mxCell>
                <mxCell id="15" value="" style="group;strokeWidth=1;fontSize=18;" vertex="1" connectable="0" parent="1">
                    <mxGeometry x="365" y="330" width="140" height="80" as="geometry"/>
                </mxCell>
                <mxCell id="16" value="" style="whiteSpace=wrap;html=1;strokeWidth=1;fontSize=18;" vertex="1" parent="15">
                    <mxGeometry width="120" height="60" as="geometry"/>
                </mxCell>
                <mxCell id="17" value="" style="whiteSpace=wrap;html=1;strokeWidth=1;fontSize=18;" vertex="1" parent="15">
                    <mxGeometry x="10" y="10" width="120" height="60" as="geometry"/>
                </mxCell>
                <mxCell id="18" value="web server" style="whiteSpace=wrap;html=1;strokeWidth=1;fontSize=18;" vertex="1" parent="15">
                    <mxGeometry x="20" y="20" width="120" height="60" as="geometry"/>
                </mxCell>
                <mxCell id="22" value="" style="group;strokeWidth=1;fontSize=18;" vertex="1" connectable="0" parent="1">
                    <mxGeometry x="240" y="480" width="170" height="80" as="geometry"/>
                </mxCell>
                <mxCell id="23" value="" style="whiteSpace=wrap;html=1;strokeWidth=1;fontSize=18;" vertex="1" parent="22">
                    <mxGeometry width="145.7142857142857" height="60" as="geometry"/>
                </mxCell>
                <mxCell id="24" value="" style="whiteSpace=wrap;html=1;strokeWidth=1;fontSize=18;" vertex="1" parent="22">
                    <mxGeometry x="12.142857142857142" y="10" width="145.7142857142857" height="60" as="geometry"/>
                </mxCell>
                <mxCell id="25" value="Write endpoint" style="whiteSpace=wrap;html=1;strokeWidth=1;fontSize=18;" vertex="1" parent="22">
                    <mxGeometry x="24.285714285714285" y="20" width="145.7142857142857" height="60" as="geometry"/>
                </mxCell>
                <mxCell id="26" value="" style="group;strokeWidth=1;fontSize=18;" vertex="1" connectable="0" parent="1">
                    <mxGeometry x="470" y="480" width="170" height="80" as="geometry"/>
                </mxCell>
                <mxCell id="27" value="" style="whiteSpace=wrap;html=1;strokeWidth=1;fontSize=18;" vertex="1" parent="26">
                    <mxGeometry width="145.7142857142857" height="60" as="geometry"/>
                </mxCell>
                <mxCell id="28" value="" style="whiteSpace=wrap;html=1;strokeWidth=1;fontSize=18;" vertex="1" parent="26">
                    <mxGeometry x="12.142857142857142" y="10" width="145.7142857142857" height="60" as="geometry"/>
                </mxCell>
                <mxCell id="29" value="Read endpoint" style="whiteSpace=wrap;html=1;strokeWidth=1;fontSize=18;" vertex="1" parent="26">
                    <mxGeometry x="24.285714285714285" y="20" width="145.7142857142857" height="60" as="geometry"/>
                </mxCell>
                <mxCell id="30" value="" style="group;strokeWidth=1;fontSize=18;" vertex="1" connectable="0" parent="1">
                    <mxGeometry x="715" y="680" width="140" height="80" as="geometry"/>
                </mxCell>
                <mxCell id="31" value="" style="whiteSpace=wrap;html=1;strokeWidth=1;fontSize=18;" vertex="1" parent="30">
                    <mxGeometry width="120" height="60" as="geometry"/>
                </mxCell>
                <mxCell id="32" value="" style="whiteSpace=wrap;html=1;strokeWidth=1;fontSize=18;" vertex="1" parent="30">
                    <mxGeometry x="10" y="10" width="120" height="60" as="geometry"/>
                </mxCell>
                <mxCell id="33" value="Memory Cache" style="whiteSpace=wrap;html=1;strokeWidth=1;fontSize=18;" vertex="1" parent="30">
                    <mxGeometry x="20" y="20" width="120" height="60" as="geometry"/>
                </mxCell>
                <mxCell id="36" style="html=1;exitX=1;exitY=0.5;exitDx=0;exitDy=0;exitPerimeter=0;entryX=0;entryY=0.5;entryDx=0;entryDy=0;entryPerimeter=0;shadow=1;endArrow=none;endFill=0;dashed=1;dashPattern=8 8;strokeWidth=1;fontSize=18;" edge="1" parent="1" source="34" target="35">
                    <mxGeometry relative="1" as="geometry"/>
                </mxCell>
                <mxCell id="34" value="Write&lt;br style=&quot;font-size: 18px;&quot;&gt;Master" style="shape=cylinder3;whiteSpace=wrap;html=1;boundedLbl=1;backgroundOutline=1;size=15;strokeWidth=1;fontSize=18;" vertex="1" parent="1">
                    <mxGeometry x="307.14" y="670" width="60" height="80" as="geometry"/>
                </mxCell>
                <mxCell id="35" value="Read&lt;br style=&quot;font-size: 18px;&quot;&gt;Replication" style="shape=cylinder3;whiteSpace=wrap;html=1;boundedLbl=1;backgroundOutline=1;size=15;strokeWidth=1;fontSize=18;" vertex="1" parent="1">
                    <mxGeometry x="537.14" y="670" width="60" height="80" as="geometry"/>
                </mxCell>
                <mxCell id="40" style="edgeStyle=orthogonalEdgeStyle;html=1;exitX=0.5;exitY=1;exitDx=0;exitDy=0;entryX=0.5;entryY=0;entryDx=0;entryDy=0;entryPerimeter=0;shadow=1;endArrow=classic;endFill=1;strokeWidth=3;fontSize=18;" edge="1" parent="1" source="25" target="34">
                    <mxGeometry relative="1" as="geometry"/>
                </mxCell>
                <mxCell id="41" style="edgeStyle=orthogonalEdgeStyle;html=1;exitX=0.5;exitY=1;exitDx=0;exitDy=0;entryX=0.5;entryY=0;entryDx=0;entryDy=0;entryPerimeter=0;shadow=1;endArrow=classic;endFill=1;strokeWidth=3;fontSize=18;" edge="1" parent="1" source="29" target="35">
                    <mxGeometry relative="1" as="geometry"/>
                </mxCell>
                <mxCell id="42" style="edgeStyle=orthogonalEdgeStyle;html=1;exitX=0.5;exitY=1;exitDx=0;exitDy=0;entryX=0.5;entryY=0;entryDx=0;entryDy=0;shadow=1;endArrow=classic;endFill=1;strokeWidth=3;fontSize=18;" edge="1" parent="1" source="29" target="31">
                    <mxGeometry relative="1" as="geometry"/>
                </mxCell>
                <mxCell id="43" style="edgeStyle=orthogonalEdgeStyle;html=1;exitX=0.5;exitY=1;exitDx=0;exitDy=0;entryX=0.5;entryY=0;entryDx=0;entryDy=0;shadow=1;endArrow=classic;endFill=1;strokeWidth=3;fontSize=18;" edge="1" parent="1" source="18" target="23">
                    <mxGeometry relative="1" as="geometry"/>
                </mxCell>
                <mxCell id="44" style="edgeStyle=orthogonalEdgeStyle;html=1;exitX=0.5;exitY=1;exitDx=0;exitDy=0;entryX=0.5;entryY=0;entryDx=0;entryDy=0;shadow=1;endArrow=classic;endFill=1;strokeWidth=3;fontSize=18;" edge="1" parent="1" source="18" target="27">
                    <mxGeometry relative="1" as="geometry"/>
                </mxCell>
                <mxCell id="45" style="edgeStyle=orthogonalEdgeStyle;html=1;exitX=0.5;exitY=1;exitDx=0;exitDy=0;entryX=0.5;entryY=0;entryDx=0;entryDy=0;shadow=1;endArrow=classic;endFill=1;rounded=1;strokeWidth=3;fontSize=18;" edge="1" parent="1" source="13" target="16">
                    <mxGeometry relative="1" as="geometry"/>
                </mxCell>
                <mxCell id="52" value="&lt;font style=&quot;font-size: 35px;&quot;&gt;Dev&lt;/font&gt;" style="text;html=1;align=center;verticalAlign=middle;resizable=0;points=[];autosize=1;strokeColor=none;fillColor=none;strokeWidth=1;fontSize=35;" vertex="1" parent="1">
                    <mxGeometry x="-490" y="160" width="90" height="60" as="geometry"/>
                </mxCell>
                <mxCell id="53" value="&lt;font style=&quot;font-size: 35px;&quot;&gt;Prod&lt;/font&gt;" style="text;html=1;align=center;verticalAlign=middle;resizable=0;points=[];autosize=1;strokeColor=none;fillColor=none;strokeWidth=1;fontSize=35;" vertex="1" parent="1">
                    <mxGeometry x="735" y="160" width="100" height="60" as="geometry"/>
                </mxCell>
                <mxCell id="54" value="" style="group;strokeWidth=1;fontSize=18;" vertex="1" connectable="0" parent="1">
                    <mxGeometry x="-160" y="330" width="140" height="80" as="geometry"/>
                </mxCell>
                <mxCell id="55" value="" style="whiteSpace=wrap;html=1;strokeWidth=1;fontSize=18;" vertex="1" parent="54">
                    <mxGeometry width="120" height="60" as="geometry"/>
                </mxCell>
                <mxCell id="56" value="" style="whiteSpace=wrap;html=1;strokeWidth=1;fontSize=18;" vertex="1" parent="54">
                    <mxGeometry x="10" y="10" width="120" height="60" as="geometry"/>
                </mxCell>
                <mxCell id="57" value="web server" style="whiteSpace=wrap;html=1;strokeWidth=1;fontSize=18;" vertex="1" parent="54">
                    <mxGeometry x="20" y="20" width="120" height="60" as="geometry"/>
                </mxCell>
                <mxCell id="58" style="edgeStyle=orthogonalEdgeStyle;rounded=1;html=1;exitX=0.5;exitY=1;exitDx=0;exitDy=0;entryX=0.5;entryY=0;entryDx=0;entryDy=0;shadow=1;strokeWidth=3;fontSize=35;endArrow=classic;endFill=1;" edge="1" parent="1" source="13" target="55">
                    <mxGeometry relative="1" as="geometry"/>
                </mxCell>
                <mxCell id="64" value="&lt;font style=&quot;font-size: 20px;&quot;&gt;Manual sync&lt;/font&gt;" style="edgeStyle=none;rounded=1;html=1;exitX=1;exitY=0.5;exitDx=0;exitDy=0;exitPerimeter=0;entryX=0;entryY=0.5;entryDx=0;entryDy=0;entryPerimeter=0;shadow=1;strokeWidth=1;fontSize=35;endArrow=none;endFill=0;dashed=1;dashPattern=12 12;startArrow=classic;startFill=1;" edge="1" parent="1" source="62" target="34">
                    <mxGeometry relative="1" as="geometry">
                        <mxPoint as="offset"/>
                    </mxGeometry>
                </mxCell>
                <mxCell id="62" value="W/R" style="shape=cylinder3;whiteSpace=wrap;html=1;boundedLbl=1;backgroundOutline=1;size=15;strokeWidth=1;fontSize=18;" vertex="1" parent="1">
                    <mxGeometry x="-110" y="670" width="60" height="80" as="geometry"/>
                </mxCell>
                <mxCell id="63" style="edgeStyle=none;rounded=1;html=1;exitX=0.5;exitY=1;exitDx=0;exitDy=0;entryX=0.5;entryY=0;entryDx=0;entryDy=0;entryPerimeter=0;shadow=1;strokeWidth=3;fontSize=35;endArrow=classic;endFill=1;" edge="1" parent="1" source="57" target="62">
                    <mxGeometry relative="1" as="geometry"/>
                </mxCell>
            </root>
        </mxGraphModel>
    </diagram>
</mxfile>